# xmcd CD database file
#
# Track frame offsets:
#	150
#	18503
#	35308
#	48005
#	59171
#	73392
#	88879
#	107708
#	121398
#	137147
#	152565
#	168815
#
# Disc length: 2329 seconds
#
# Revision: 2
# Processed by: cddbd v1.5PL3 Copyright (c) Steve Scherf et al.
# Submitted via: CDex 1.51
#
DISCID=a409170c
DTITLE=Salley Gardens - Down to the river
DYEAR=2003
DGENRE=Jazz
TTITLE0=Down to the river
TTITLE1=Darlas Bridge
TTITLE2=High Wheat Little Feet
TTITLE3=Yearning
TTITLE4=When I get there
TTITLE5=Jolene
TTITLE6=Wake Up
TTITLE7=Ghost
TTITLE8=Meant to be
TTITLE9=In the evening
TTITLE10=Shields
TTITLE11=The Pass
EXTD=YEAR: 2003
EXTT0=
EXTT1=
EXTT2=
EXTT3=
EXTT4=
EXTT5=
EXTT6=
EXTT7=
EXTT8=
EXTT9=
EXTT10=
EXTT11=
PLAYORDER=
